<svg width="12" height="14" fill="none" xmlns="http://www.w3.org/2000/svg"><path d="M0 11.577c0 1.358.71 2.063 2.082 2.063h7.465c1.212 0 1.923-.711 1.923-2.063V5.013c0-1.358-.717-2.063-2.082-2.063H8.48C8.45 1.535 7.243.36 5.732.36 4.228.36 3.015 1.535 2.99 2.95h-.908C.711 2.95 0 3.655 0 5.013v6.564zM4.19 2.95a1.516 1.516 0 0 1 1.542-1.485c.876 0 1.523.66 1.549 1.485H4.189zM1.243 11.47V5.12c0-.622.324-.927.914-.927h7.154c.584 0 .914.305.914.927v6.348c0 .616-.33.927-.755.927H2.158c-.59 0-.914-.312-.914-.927z" fill="#fff"/></svg>