<svg width="15" height="13" fill="none" xmlns="http://www.w3.org/2000/svg"><path d="M5.443 9.138h6.786c.357 0 .673-.257.673-.656 0-.392-.316-.65-.673-.65H5.625c-.2 0-.322-.14-.352-.352l-.087-.592h7.148c.96 0 1.488-.574 1.629-1.546l.393-2.678c.011-.082.029-.194.029-.276 0-.433-.287-.738-.82-.738H4.44l-.064-.463C4.289.59 4.014.285 3.275.285H1.348a.745.745 0 0 0-.733.738c0 .404.34.738.733.738h1.605l.856 5.842c.146.955.668 1.535 1.634 1.535zm7.377-6.181l-.304 2.28c-.036.21-.141.339-.346.339l-7.166.006-.375-2.625h8.191zm-6.879 9.258a1.13 1.13 0 0 0 1.137-1.137 1.13 1.13 0 0 0-1.137-1.131 1.133 1.133 0 1 0 0 2.268zm5.315 0a1.13 1.13 0 0 0 1.13-1.137c0-.627-.503-1.131-1.13-1.131a1.133 1.133 0 1 0 0 2.268z" fill="#fff"/></svg>