<svg width="17" height="17" fill="none" xmlns="http://www.w3.org/2000/svg"><path d="M8.54 16.05c4.358 0 7.968-3.617 7.968-7.969 0-4.36-3.617-7.968-7.977-7.968C4.18.113.571 3.722.571 8.08c0 4.352 3.617 7.969 7.968 7.969zm-.876-4.148c-.266 0-.484-.11-.687-.383L5.016 9.113a.85.85 0 0 1-.188-.508.63.63 0 0 1 .625-.64c.227 0 .399.07.594.327l1.586 2.047 3.336-5.36c.148-.234.351-.359.554-.359.344 0 .665.235.665.602 0 .172-.102.351-.196.516l-3.672 5.78c-.164.259-.39.384-.656.384z" fill="#F01C4F"/></svg>