<svg viewBox="0 0 40 40" xmlns="http://www.w3.org/2000/svg"><path d="m20 39.5a19.64 19.64 0 0 0 19.5-19.5 19.65 19.65 0 0 0 -19.5-19.5 19.62 19.62 0 0 0 -19.5 19.5 19.66 19.66 0 0 0 19.5 19.5zm0-3.25a16.25 16.25 0 1 1 16.25-16.25 16.18 16.18 0 0 1 -16.25 16.25zm-6.54-8.16a1.52 1.52 0 0 0 1.11-.48l5.43-5.43 5.45 5.43a1.51 1.51 0 0 0 1.09.48 1.54 1.54 0 0 0 1.53-1.55 1.44 1.44 0 0 0 -.46-1.09l-5.45-5.45 5.45-5.47a1.42 1.42 0 0 0 .46-1.07 1.54 1.54 0 0 0 -1.53-1.46 1.39 1.39 0 0 0 -1.05.48l-5.49 5.4-5.45-5.43a1.36 1.36 0 0 0 -1.09-.45 1.52 1.52 0 0 0 -1.53 1.51 1.48 1.48 0 0 0 .46 1.07l5.43 5.42-5.43 5.45a1.47 1.47 0 0 0 -.46 1.07 1.54 1.54 0 0 0 1.53 1.57z" fill="#fff" fill-opacity=".7"/></svg>