<svg width="16" height="15" fill="none" xmlns="http://www.w3.org/2000/svg"><path d="M3.133 14.698h9.46c1.688 0 2.563-.875 2.563-2.539V2.652c0-1.672-.875-2.54-2.562-2.54H3.133C1.445.113.57.98.57 2.653v9.507c0 1.672.875 2.54 2.563 2.54zm3.883-3.445c-.297 0-.54-.133-.758-.414L4.344 8.511a.865.865 0 0 1-.211-.555c0-.398.312-.726.719-.726.242 0 .43.093.625.343l1.507 1.915 3.235-5.172c.164-.274.383-.407.633-.407.39 0 .742.274.742.68 0 .18-.094.375-.203.547l-3.657 5.703c-.18.266-.43.414-.718.414z" fill="#F01C4F"/></svg>